<svg viewBox="0 0 19.8433 15.4336" xmlns="http://www.w3.org/2000/svg" xmlns:xlink="http://www.w3.org/1999/xlink" width="19.843262" height="15.433594" fill="none" customFrame="#000000">
	<path id="Vector" d="M19.4292 2.41091C19.3163 1.94406 19.0948 1.51832 18.787 1.1763C18.4791 0.834274 18.0958 0.587969 17.6752 0.462029C16.1272 8.9407e-08 9.92169 1.56051e-20 9.92169 1.56051e-20C9.92169 1.56051e-20 3.7162 -8.9407e-08 2.16815 0.459571C1.74741 0.585103 1.36384 0.831271 1.05596 1.17336C0.748084 1.51544 0.526733 1.9414 0.414142 2.40845C-8.9407e-08 4.12877 1.40625e-20 7.71687 1.40625e-20 7.71687C1.40625e-20 7.71687 -8.9407e-08 11.305 0.414142 13.0228C0.642252 13.9715 1.31551 14.7186 2.16815 14.9717C3.7162 15.4337 9.92169 15.4337 9.92169 15.4337C9.92169 15.4337 16.1272 15.4337 17.6752 14.9717C18.5301 14.7186 19.2011 13.9715 19.4292 13.0228C19.8434 11.305 19.8434 7.71687 19.8434 7.71687C19.8434 7.71687 19.8434 4.12877 19.4292 2.41091ZM7.95064 11.0101L7.95064 4.42368L13.0887 7.69229L7.95064 11.0101Z" fill="rgb(255,255,255)" fill-rule="nonzero" />
</svg>
